<svg version="1.1" id="Capa_1" xmlns="http://www.w3.org/2000/svg" x="0" y="0" viewBox="0 0 524.4 103.5" xml:space="preserve"><style>.st0{fill:#d3effb}.st6{fill:#e4f6ff}.st7{fill:#2b4d66}.st9{fill:#407093}.st10{fill:#365e7d}</style><path class="st0" d="M78.5 8.7H9.6V4.2c0-1.1.9-2 2-2h64.8c1.1 0 2 .9 2 2l.1 4.5z"/><path d="M80.5 15.1H7.6v-4.5c0-1.1.9-2 2-2h68.9c1.1 0 2 .9 2 2v4.5z" fill="#cbe2ff"/><path d="M86.6 101.9H1.7l-.2-26.4h85.1v26.4z" fill="#9d66d5"/><path d="M86.6 88.8L74.3 76.6c.2-.3.3-.7.4-1H22.1c1.4 3.5 3.5 6.7 6.3 9.5 5.4 5.4 12.5 8.3 20.1 8.3 4 0 8-.8 11.6-2.5l11 11h15.6l-.1-13.1z" fill="#8659b9"/><path d="M82.6 75.5h-77V17.2c0-1.1.9-2 2-2h72.9c1.1 0 2 .9 2 2l.1 58.3z" fill="#f4fbff"/><path d="M32.3 21.6v25.1H12V21.6h20.3z" fill="#dd636e"/><path class="st6" d="M80.5 15.1h-5.3c1.1 0 2 .9 2 2v58.4h5.3V17.2c.1-1.1-.9-2.1-2-2.1z"/><path class="st7" d="M60.7 85.9l8.6-8.6 5.2 5.2-8.6 8.6-5.2-5.2z"/><path d="M67.6 89.3l5.2-5.2 5.2 5.2-5.2 5.2-5.2-5.2z" fill="#4a80aa"/><path class="st9" d="M93.9 101.9H76.7l-5.6-5.6 8.6-8.6 14.2 14.2z"/><path class="st10" d="M79.7 87.6l-2.9 2.9 11.4 11.4h5.7L79.7 87.6z"/><circle class="st9" cx="48.4" cy="65" r="24.3"/><path class="st10" d="M63.1 45.6c3.1 4.1 5 9.2 5 14.7 0 13.4-10.9 24.3-24.3 24.3-5.5 0-10.6-1.8-14.7-5 4.4 5.8 11.5 9.6 19.4 9.6 13.4 0 24.3-10.9 24.3-24.3-.1-7.8-3.8-14.8-9.7-19.3z"/><circle class="st6" cx="48.4" cy="65" r="17.8"/><path class="st0" d="M59.2 50.8c2.3 3 3.6 6.7 3.6 10.8 0 9.8-8 17.8-17.8 17.8-4 0-7.8-1.3-10.8-3.6 3.3 4.3 8.4 7.1 14.2 7.1 9.8 0 17.8-8 17.8-17.8.1-5.9-2.7-11.1-7-14.3z"/><path d="M5.6 56.9c.8 0 1.5-.7 1.5-1.5V17.2c0-.3.2-.5.5-.5h72.9c.3 0 .5.2.5.5v18.1c0 .8.7 1.5 1.5 1.5s1.5-.7 1.5-1.5V17.2c0-1.4-.8-2.6-2-3.2v-3.3c0-1.4-.8-2.6-2-3.2V4.2C80 2.3 78.4.7 76.5.7H11.6C9.7.7 8.1 2.3 8.1 4.2v3.3c-1.2.6-2 1.8-2 3.2V14c-1.2.6-2 1.8-2 3.2v38.2c0 .8.6 1.5 1.5 1.5zm3.5-46.2c0-.3.2-.5.5-.5h68.9c.3 0 .5.2.5.5v3H9.1v-3zm2-6.5c0-.3.2-.5.5-.5h64.8c.3 0 .5.2.5.5v3H11.1v-3z"/><path d="M62.1 51.3c-3.7-3.7-8.5-5.7-13.7-5.7s-10 2-13.7 5.7C31 55 29 59.8 29 65s2 10 5.7 13.7c3.7 3.7 8.5 5.7 13.7 5.7s10-2 13.7-5.7c3.7-3.7 5.7-8.5 5.7-13.7s-2-10-5.7-13.7zM60 76.5c-3.1 3.1-7.2 4.8-11.5 4.8S40 79.6 37 76.5c-3.1-3.1-4.8-7.2-4.8-11.5s1.7-8.5 4.8-11.5c3.1-3.1 7.2-4.8 11.5-4.8S57 50.4 60 53.5c3.1 3.1 4.8 7.2 4.8 11.5s-1.7 8.5-4.8 11.5z"/><path d="M95 100.8L88.1 94V75.5c0-.8-.7-1.5-1.5-1.5h-2.5V42.3c0-.8-.7-1.5-1.5-1.5s-1.5.7-1.5 1.5V74h-8.4c3.4-9.2 1.4-19.9-5.9-27.3-8.9-8.9-22.8-9.9-32.9-3V21.6c0-.8-.7-1.5-1.5-1.5H12c-.8 0-1.5.7-1.5 1.5v25.1c0 .8.7 1.5 1.5 1.5h16.7C22.5 55.5 21 65.4 24.2 74H7.1V62.4c0-.8-.7-1.5-1.5-1.5s-1.5.7-1.5 1.5V74H1.5c-.4 0-.8.2-1.1.4-.2.4-.4.7-.4 1.1l.2 26.3c0 .8.7 1.5 1.5 1.5h8.9c.8 0 1.5-.7 1.5-1.5s-.7-1.5-1.5-1.5H3.2L3 77h22.6c1.2 2.2 2.7 4.3 4.6 6.2 5 5 11.6 7.6 18.3 7.6 4.2 0 8.3-1 12.1-3l4.3 4.3c.3.3.7.4 1.1.4s.8-.2 1.1-.4l.7-.7 3 3-.8.8c-.6.6-.6 1.5 0 2.1l3.1 3.1H17.7c-.8 0-1.5.7-1.5 1.5s.7 1.5 1.5 1.5h59c.4 0 .8-.1 1.1-.4.6-.6.6-1.5 0-2.1l-4.6-4.6 6.5-6.5L92.9 103c.3.3.7.4 1.1.4.4 0 .8-.1 1.1-.4.5-.7.5-1.6-.1-2.2zM13.5 23.1h17.3v22.1H13.5V23.1zm18.8 58c-8.9-8.9-8.9-23.4 0-32.3 4.4-4.4 10.3-6.7 16.1-6.7s11.7 2.2 16.1 6.7c8.9 8.9 8.9 23.4 0 32.3-8.8 8.9-23.3 8.9-32.2 0zm30.9 5.1c1.2-.9 2.4-1.8 3.5-2.9s2.1-2.3 2.9-3.5l2.7 2.7-6.5 6.5-2.6-2.8zm6.6 3.1l3-3 3 3-3 3-3-3zm8.8-2.7l-.7.7-3-3 .7-.7c.3-.3.4-.7.4-1.1 0-.4-.2-.8-.4-1.1l-4.3-4.3V77h13.8v13.9l-4.4-4.4c-.6-.5-1.5-.5-2.1.1z"/><path d="M76.1 20.1H39.2c-.8 0-1.5.7-1.5 1.5s.7 1.5 1.5 1.5h36.9c.8 0 1.5-.7 1.5-1.5s-.7-1.5-1.5-1.5zm1.5 8c0-.8-.7-1.5-1.5-1.5H39.2c-.8 0-1.5.7-1.5 1.5s.7 1.5 1.5 1.5h36.9c.8 0 1.5-.7 1.5-1.5zm-38.4 5c-.8 0-1.5.7-1.5 1.5s.7 1.5 1.5 1.5h24.7c.8 0 1.5-.7 1.5-1.5s-.7-1.5-1.5-1.5H39.2z"/><path class="st7" d="M112.2 29.7h-5V4.3h6.2l4.2 14.4 4.2-14.4h6.2v25.4h-5v-17l-3.3 11.6h-4.2l-3.3-11.5v16.9zm24-19.8h4.8c1.8 0 3 .4 3.8 1.1.8.8 1.1 1.9 1.1 3.3v10.9c0 1.4-.4 2.5-1.1 3.3-.8.8-2 1.1-3.8 1.1h-4.8c-1.8 0-3-.4-3.8-1.1-.8-.8-1.1-1.9-1.1-3.3V14.4c0-1.4.4-2.5 1.1-3.3.8-.8 2-1.2 3.8-1.2zm9.7-7L141 8.7h-4.5l3.6-5.7h5.8zm-5.5 21.8v-9.8c0-.7-.4-1-1.1-1h-1.5c-.7 0-1.1.3-1.1 1v9.8c0 .7.4 1 1.1 1h1.5c.7 0 1.1-.3 1.1-1zM157.5 3h5.6v26.8h-5.5v-2.2c-.4 1.5-1.5 2.2-3.2 2.2h-1c-3.1 0-4.7-1.5-4.7-4.4v-11c0-2.9 1.6-4.4 4.7-4.4h1c1.7 0 2.8.7 3.2 2V3zm-2.1 22.5h.9c.8 0 1.2-.4 1.2-1.3v-8.8c0-.9-.4-1.3-1.2-1.3h-.9c-.4 0-.7.1-.8.2-.2.1-.2.4-.2.8v9.4c-.1.7.2 1 1 1zM175 9.9h5.6v19.8h-5.5v-2.2c-.4 1.5-1.5 2.2-3.2 2.2h-1c-3.1 0-4.7-1.5-4.7-4.4V9.9h5.6v14.6c0 .7.4 1 1.1 1h.9c.8 0 1.2-.4 1.2-1.3V9.9zm14.5 19.8H184V3h5.6v26.7zm8.1-19.8h4.8c1.8 0 3 .4 3.8 1.1.8.8 1.1 1.9 1.1 3.3v10.9c0 1.4-.4 2.5-1.1 3.3-.8.8-2 1.1-3.8 1.1h-4.8c-1.8 0-3-.4-3.8-1.1-.8-.8-1.1-1.9-1.1-3.3V14.4c0-1.4.4-2.5 1.1-3.3.8-.8 2-1.2 3.8-1.2zm4.2 14.8v-9.8c0-.7-.4-1-1.1-1h-1.5c-.7 0-1.1.3-1.1 1v9.8c0 .7.4 1 1.1 1h1.5c.7 0 1.1-.3 1.1-1zm16-20.4h5.7v25.4h-5.7V4.3zm18 5.6h1c3.1 0 4.7 1.5 4.7 4.4v15.4h-5.6V15.1c0-.7-.4-1-1.1-1h-1c-.8 0-1.2.4-1.2 1.3v14.3H227V9.9h5.5v2.2c.5-1.4 1.5-2.2 3.3-2.2zM254 7.1h-2c-.7 0-1.1.3-1.1 1v1.8h3v4.2h-3v15.6h-5.6V14.1h-2V9.9h2V7.4c0-2.9 1.7-4.4 5-4.4h3.6v4.1zm6.6 2.8h4.8c1.8 0 3 .4 3.8 1.1.8.8 1.1 1.9 1.1 3.3v10.9c0 1.4-.4 2.5-1.1 3.3-.8.8-2 1.1-3.8 1.1h-4.8c-1.8 0-3-.4-3.8-1.1-.8-.8-1.1-1.9-1.1-3.3V14.4c0-1.4.4-2.5 1.1-3.3.7-.8 2-1.2 3.8-1.2zm4.2 14.8v-9.8c0-.7-.4-1-1.1-1h-1.5c-.7 0-1.1.3-1.1 1v9.8c0 .7.4 1 1.1 1h1.5c.7 0 1.1-.3 1.1-1zm18-14.9h.7v4.8h-2c-1.7 0-2.5.9-2.5 2.8v12.3h-5.6V9.9h5.5v2.8c.2-.9.7-1.6 1.3-2.1.7-.5 1.5-.8 2.6-.8zm20 .1h1c3.1 0 4.7 1.5 4.7 4.4v15.4h-5.6V15.1c0-.7-.4-1-1.1-1h-1c-.8 0-1.2.4-1.2 1.3v14.3H294V15.1c0-.7-.4-1-1.1-1h-1c-.8 0-1.2.4-1.2 1.3v14.3h-5.6V9.9h5.5v2.2c.4-1.5 1.4-2.2 3.2-2.2h1c2.2 0 3.6.7 4.3 2.2.2-.7.6-1.2 1.2-1.6.8-.4 1.6-.6 2.5-.6zm17.3 0h5.5v19.8H320v-2c-.4 1.3-1.5 2-3.2 2h-1c-3.1 0-4.7-1.5-4.7-4.4V14.4c0-3 1.6-4.4 4.7-4.4h1c1.8 0 2.9.7 3.2 2.2V9.9zm5.8-7L321 8.7h-4.5l3.6-5.7h5.8zm-8 22.6h.9c.8 0 1.2-.4 1.2-1.3v-8.8c0-.9-.4-1.3-1.2-1.3h-.9c-.7 0-1.1.3-1.1 1v9.4c0 .7.4 1 1.1 1zm19.8-11.4h-2.6v10.4c0 .6.4 1 1.1 1h1.5v4.3h-3.1c-3.4 0-5-1.5-5-4.4V14.1h-2.1V9.9h2.1V6.3h5.6V10h2.6v4.1zm2-6.8V3h5.8v4.3h-5.8zm5.7 22.4h-5.6V9.9h5.6v19.8zm17.2-12.6h-5.4v-1.9c0-.7-.4-1-1.1-1h-1c-.7 0-1.1.3-1.1 1v9.4c0 .7.4 1 1.1 1h1c.7 0 1.1-.3 1.1-1v-1.9h5.4v2.7c0 3-1.7 4.4-5.1 4.4h-4.1c-3.4 0-5.1-1.5-5.1-4.4v-11c0-3 1.7-4.4 5.1-4.4h4.1c3.4 0 5.1 1.5 5.1 4.4v2.7zm7.4-7.2h4.8c1.8 0 3 .4 3.8 1.1.8.8 1.1 1.9 1.1 3.3v10.9c0 1.4-.4 2.5-1.1 3.3-.8.8-2 1.1-3.8 1.1H370c-1.8 0-3-.4-3.8-1.1-.8-.8-1.1-1.9-1.1-3.3V14.4c0-1.4.4-2.5 1.1-3.3.7-.8 2-1.2 3.8-1.2zm4.2 14.8v-9.8c0-.7-.4-1-1.1-1h-1.5c-.7 0-1.1.3-1.1 1v9.8c0 .7.4 1 1.1 1h1.5c.7 0 1.1-.3 1.1-1zM398.4 3h5.6v26.8h-5.5v-2.2c-.4 1.5-1.5 2.2-3.2 2.2h-1c-3.1 0-4.7-1.5-4.7-4.4v-11c0-2.9 1.6-4.4 4.7-4.4h1c1.7 0 2.8.7 3.2 2V3zm-2.1 22.5h.9c.8 0 1.2-.4 1.2-1.3v-8.8c0-.9-.4-1.3-1.2-1.3h-.9c-.4 0-.7.1-.8.2-.2.1-.2.4-.2.8v9.4c-.1.7.3 1 1 1zm15.8-15.6h4.5c3.4 0 5.1 1.5 5.1 4.4v7h-9.3v3.4c0 .3.1.6.2.7.2.1.4.2.8.2h1.8c.4 0 .6-.1.8-.2.2-.2.2-.4.2-.8v-1.3h5.4v1.9c0 3-1.7 4.4-5.1 4.4H412c-3.4 0-5-1.5-5-4.4V14.4c0-3 1.7-4.5 5.1-4.5zm.3 8.2h4v-3.2c0-.3-.1-.6-.2-.7-.2-.1-.4-.2-.8-.2h-1.8c-.4 0-.7.1-.8.2-.2.1-.2.4-.2.7v3.2zm34.4-4.9H441v-4c0-.7-.3-1-1-1h-1.6c-.7 0-1.1.3-1.1 1v15.6c0 .4.1.6.2.8.2.1.4.2.8.2h1.6c.4 0 .6-.1.8-.2.2-.1.2-.4.2-.8v-3.9h5.8v4.4c0 2.9-1.7 4.4-5.1 4.4h-5.1c-3.4 0-5-1.5-5-4.4V8.7c0-2.9 1.7-4.4 5-4.4h5.1c3.4 0 5.1 1.5 5.1 4.4v4.5zm11.4-3.3h5.5v19.8h-5.6v-2c-.4 1.3-1.5 2-3.2 2h-1c-3.1 0-4.7-1.5-4.7-4.4V14.4c0-3 1.6-4.4 4.7-4.4h1c1.8 0 2.9.7 3.2 2.2V9.9zM456 25.5h.9c.8 0 1.2-.4 1.2-1.3v-8.8c0-.9-.4-1.3-1.2-1.3h-.9c-.7 0-1.1.3-1.1 1v9.4c0 .7.3 1 1.1 1zm20.4-15.7h.7v4.8h-2c-1.7 0-2.5.9-2.5 2.8v12.3H467V9.9h5.5v2.8c.2-.9.7-1.6 1.3-2.1.7-.5 1.5-.8 2.6-.8zm11 .1h5.5v20.7c0 3-1.7 4.4-5 4.4h-8.5v-4h6.9c.7 0 1.1-.3 1.1-1v-3c-.4 1.3-1.5 2-3.2 2h-1c-3.1 0-4.7-1.5-4.7-4.4V14.4c0-3 1.6-4.4 4.7-4.4h1c1.8 0 2.9.7 3.2 2.2V9.9zm-2.2 14.8h.9c.8 0 1.2-.4 1.2-1.3v-8c0-.9-.4-1.3-1.2-1.3h-.9c-.7 0-1.1.3-1.1 1v8.6c.1.7.4 1 1.1 1zm19.6-14.8h5.5v19.8h-5.6v-2c-.4 1.3-1.5 2-3.2 2h-1c-3.1 0-4.7-1.5-4.7-4.4V14.4c0-3 1.6-4.4 4.7-4.4h1c1.8 0 2.9.7 3.2 2.2V9.9zm-2.2 15.6h.9c.8 0 1.2-.4 1.2-1.3v-8.8c0-.9-.4-1.3-1.2-1.3h-.9c-.7 0-1.1.3-1.1 1v9.4c0 .7.4 1 1.1 1zm10.8-1.7h5.8V27l-4 8.5h-1.8V23.8zM120.8 44.2h-8v7h6.7v4h-6.7v10.3h-5.7V40h13.7v4.2zm2-1.2v-4.3h5.8V43h-5.8zm5.7 22.4H123V45.6h5.6v19.8zm8.9 0h-5.6V38.7h5.6v26.7zm12.2-15.6H147v10.4c0 .6.4 1 1.1 1h1.5v4.3h-3.1c-3.4 0-5-1.5-5-4.4V49.8h-2.1v-4.2h2.1v-3.7h5.6v3.7h2.6v4.2zm11.4-4.3h.7v4.8h-2c-1.7 0-2.5.9-2.5 2.8v12.3h-5.6V45.6h5.5v2.8c.2-.9.7-1.6 1.3-2.1.7-.5 1.6-.8 2.6-.8zm7.3.1h4.8c1.8 0 3 .4 3.8 1.1.8.8 1.1 1.9 1.1 3.3v11c0 1.4-.4 2.5-1.1 3.3-.8.8-2 1.1-3.8 1.1h-4.8c-1.8 0-3-.4-3.8-1.1-.8-.8-1.1-1.9-1.1-3.3V50.1c0-1.4.4-2.5 1.1-3.3.8-.8 2-1.2 3.8-1.2zm4.2 14.8v-9.8c0-.7-.4-1-1.1-1h-1.5c-.7 0-1.1.3-1.1 1v9.8c0 .7.4 1 1.1 1h1.5c.7 0 1.1-.3 1.1-1zm8.4-.9h5.8v3.2l-4 8.5h-1.8V59.5zm21.9-3.6v9.5h-5.7V40h10.5c3.4 0 5 1.5 5 4.4v7.1c0 2.3-1.1 3.8-3.2 4.2l4.5 9.7h-6.1l-4-9.5h-1zm0-11.7v7.7h3.1c.4 0 .6-.1.8-.2.2-.1.2-.4.2-.7v-5.7c0-.7-.3-1-1-1h-3.1zm17.8 1.4h4.5c3.4 0 5.1 1.5 5.1 4.4v7h-9.3v3.4c0 .3.1.6.2.7s.4.2.8.2h1.8c.4 0 .6-.1.8-.2.2-.2.2-.4.2-.8V59h5.4v2c0 3-1.7 4.4-5.1 4.4h-4.5c-3.4 0-5-1.5-5-4.4V50.1c0-3 1.7-4.5 5.1-4.5zm.2 8.2h4v-3.2c0-.3-.1-.6-.2-.7-.2-.1-.4-.2-.8-.2H222c-.4 0-.7.1-.8.2-.2.1-.2.4-.2.7v3.2zm20 6.9v-2.2c0-.3-.1-.6-.2-.7-.2-.1-.4-.2-.8-.2h-2.3c-3.3 0-5-1.5-5-4.4v-3c0-3 1.7-4.4 5.1-4.4h3.4c3.4 0 5.1 1.5 5.1 4.4V52h-5.4v-1.4c0-.3-.1-.6-.2-.7s-.4-.2-.8-.2h-.6c-.4 0-.7.1-.8.2-.2.1-.2.4-.2.7V53c0 .3.1.6.2.7.2.1.4.2.8.2h2.3c3.3 0 5 1.5 5 4.4V61c0 3-1.7 4.4-5.1 4.4h-3.6c-3.4 0-5-1.5-5-4.4v-1.7h5.4v1.4c0 .7.3 1 1 1h.7c.6 0 1-.4 1-1zm16.8-15.1h5.6v19.8h-5.5v-2.2c-.4 1.5-1.5 2.2-3.2 2.2h-1c-3.1 0-4.7-1.5-4.7-4.4V45.6h5.6v14.6c0 .7.4 1 1.1 1h.9c.8 0 1.2-.4 1.2-1.3V45.6zm26.4 0h1c3.1 0 4.7 1.5 4.7 4.4v15.4h-5.6V50.8c0-.7-.4-1-1.1-1h-1c-.8 0-1.2.4-1.2 1.3v14.3h-5.6V50.8c0-.7-.4-1-1.1-1h-1c-.8 0-1.2.4-1.2 1.3v14.3h-5.6V45.6h5.5v2.2c.4-1.5 1.4-2.2 3.2-2.2h1c2.2 0 3.6.7 4.3 2.2.2-.7.6-1.2 1.2-1.6.9-.4 1.6-.6 2.5-.6zm13.6 0h4.5c3.4 0 5.1 1.5 5.1 4.4v7h-9.3v3.4c0 .3.1.6.2.7s.4.2.8.2h1.8c.4 0 .6-.1.8-.2.2-.2.2-.4.2-.8V59h5.4v2c0 3-1.7 4.4-5.1 4.4h-4.5c-3.4 0-5-1.5-5-4.4V50.1c.1-3 1.7-4.5 5.1-4.5zm.3 8.2h4v-3.2c0-.3-.1-.6-.2-.7-.2-.1-.4-.2-.8-.2H299c-.4 0-.7.1-.8.2-.2.1-.2.4-.2.7v3.2zm20.8-8.2h1c3.1 0 4.7 1.5 4.7 4.4v15.4h-5.6V50.8c0-.7-.4-1-1.1-1h-1c-.8 0-1.2.4-1.2 1.3v14.3H310V45.6h5.5v2.2c.3-1.4 1.4-2.2 3.2-2.2zm19.8 25.1h-3v-4.2h2.5c.6 0 1.1-.1 1.5-.3.4-.2.6-.6.8-1.2l.2-.8h-2.4l-5-18.7h5.8l2.6 13.8 2.4-13.8h5.6L345 65.9c-.5 1.6-1.2 2.8-2.2 3.6s-2.4 1.2-4.3 1.2zm35.3-22.5H368v-3.3c0-.7-.4-1-1.1-1h-1.6c-.7 0-1.1.3-1.1 1v15.6c0 .4.1.6.2.8.2.1.4.2.8.2h1.6c.4 0 .7-.1.8-.2s.2-.4.2-.8v-5h-2v-3.8h7.7V61c0 2.9-1.7 4.4-5 4.4h-5.2c-3.4 0-5-1.5-5-4.4V44.4c0-2.9 1.7-4.4 5-4.4h5.2c3.4 0 5 1.5 5 4.4v3.8zm12.4-2.7h.7v4.8h-2c-1.7 0-2.5.9-2.5 2.8v12.3h-5.6V45.6h5.5v2.8c.2-.9.7-1.6 1.3-2.1.7-.5 1.6-.8 2.6-.8zm11.1.1h5.5v19.8h-5.6v-2c-.4 1.3-1.5 2-3.2 2h-1c-3.1 0-4.7-1.5-4.7-4.4V50.1c0-3 1.6-4.4 4.7-4.4h1c1.8 0 2.9.7 3.2 2.2v-2.3zm5.8-7l-4.9 5.7h-4.5l3.6-5.7h5.8zm-8 22.6h.9c.8 0 1.2-.4 1.2-1.3v-8.8c0-.9-.4-1.3-1.2-1.3h-.9c-.7 0-1.1.3-1.1 1v9.4c0 .7.4 1 1.1 1zm20.3-18.4h-2c-.7 0-1.1.3-1.1 1v1.8h3v4.2h-3v15.6h-5.6V49.8h-2v-4.2h2V43c0-2.9 1.7-4.4 5-4.4h3.6v4.2zm1.8.2v-4.3h5.8V43h-5.8zm5.6 22.4h-5.6V45.6h5.6v19.8zm17.3-12.7h-5.4v-1.9c0-.7-.4-1-1.1-1h-1c-.7 0-1.1.3-1.1 1v9.4c0 .7.4 1 1.1 1h1c.7 0 1.1-.3 1.1-1v-1.9h5.4V61c0 3-1.7 4.4-5.1 4.4h-4.1c-3.4 0-5.1-1.5-5.1-4.4V50.1c0-3 1.7-4.4 5.1-4.4h4.1c3.4 0 5.1 1.5 5.1 4.4v2.6zm7.3-7.1h4.8c1.8 0 3 .4 3.8 1.1.8.8 1.1 1.9 1.1 3.3v11c0 1.4-.4 2.5-1.1 3.3-.8.8-2 1.1-3.8 1.1h-4.8c-1.8 0-3-.4-3.8-1.1-.8-.8-1.1-1.9-1.1-3.3V50.1c0-1.4.4-2.5 1.1-3.3.8-.8 2.1-1.2 3.8-1.2zm4.2 14.8v-9.8c0-.7-.4-1-1.1-1H449c-.7 0-1.1.3-1.1 1v9.8c0 .7.4 1 1.1 1h1.5c.8 0 1.1-.3 1.1-1zm16.5.3v-2.2c0-.3-.1-.6-.2-.7-.2-.1-.4-.2-.8-.2h-2.3c-3.3 0-5-1.5-5-4.4v-3c0-3 1.7-4.4 5.1-4.4h3.4c3.4 0 5.1 1.5 5.1 4.4V52H468v-1.4c0-.3-.1-.6-.2-.7s-.4-.2-.8-.2h-.6c-.4 0-.7.1-.8.2s-.2.4-.2.7V53c0 .3.1.6.2.7.2.1.4.2.8.2h2.3c3.3 0 5 1.5 5 4.4V61c0 3-1.7 4.4-5.1 4.4H465c-3.4 0-5-1.5-5-4.4v-1.7h5.4v1.4c0 .7.3 1 1 1h.7c.6 0 1-.4 1-1zm23.8-22h5.6v26.8H492v-2.2c-.4 1.5-1.5 2.2-3.2 2.2h-1c-3.1 0-4.7-1.5-4.7-4.4V50c0-2.9 1.6-4.4 4.7-4.4h1c1.7 0 2.8.7 3.2 2v-8.9zm-2.1 22.5h.9c.8 0 1.2-.4 1.2-1.3v-8.8c0-.9-.4-1.3-1.2-1.3h-.9c-.4 0-.7.1-.8.2-.2.1-.2.4-.2.8v9.4c-.1.7.3 1 1 1zm15.8-15.6h4.5c3.4 0 5.1 1.5 5.1 4.4v7h-9.3v3.4c0 .3.1.6.2.7s.4.2.8.2h1.8c.4 0 .6-.1.8-.2.2-.2.2-.4.2-.8V59h5.4v2c0 3-1.7 4.4-5.1 4.4h-4.5c-3.4 0-5-1.5-5-4.4V50.1c0-3 1.7-4.5 5.1-4.5zm.3 8.2h4v-3.2c0-.3-.1-.6-.2-.7-.2-.1-.4-.2-.8-.2h-1.8c-.4 0-.7.1-.8.2-.2.1-.2.4-.2.7v3.2zM107.2 75.7h5.7v25.4h-5.7V75.7zm18 5.6h1c3.1 0 4.7 1.5 4.7 4.4v15.4h-5.6V86.5c0-.7-.4-1-1.1-1h-1c-.8 0-1.2.4-1.2 1.3v14.3h-5.6V81.3h5.5v2.2c.5-1.4 1.5-2.2 3.3-2.2zm18.2-2.8h-2c-.7 0-1.1.3-1.1 1v1.8h3v4.2h-3v15.6h-5.6V85.5h-2v-4.2h2v-2.6c0-2.9 1.7-4.4 5-4.4h3.6v4.2zm6.6 2.8h4.8c1.8 0 3 .4 3.8 1.1.8.8 1.1 1.9 1.1 3.3v10.9c0 1.4-.4 2.5-1.1 3.3-.8.8-2 1.1-3.8 1.1H150c-1.8 0-3-.4-3.8-1.1-.8-.8-1.1-1.9-1.1-3.3V85.7c0-1.4.4-2.5 1.1-3.3.7-.7 2-1.1 3.8-1.1zm4.2 14.8v-9.8c0-.7-.4-1-1.1-1h-1.5c-.7 0-1.1.3-1.1 1v9.8c0 .7.4 1 1.1 1h1.5c.7 0 1.1-.3 1.1-1zm18-14.9h.7V86h-2c-1.7 0-2.5.9-2.5 2.8v12.3h-5.6V81.3h5.5v2.8c.2-.9.7-1.6 1.3-2.1.7-.5 1.5-.8 2.6-.8zm20 .1h1c3.1 0 4.7 1.5 4.7 4.4v15.4h-5.6V86.5c0-.7-.4-1-1.1-1h-1c-.8 0-1.2.4-1.2 1.3v14.3h-5.6V86.5c0-.7-.4-1-1.1-1h-1c-.8 0-1.2.4-1.2 1.3v14.3h-5.6V81.3h5.5v2.2c.4-1.5 1.4-2.2 3.2-2.2h1c2.2 0 3.6.7 4.3 2.2.2-.7.6-1.2 1.2-1.6.8-.4 1.6-.6 2.5-.6zm17.3 0h5.5v19.8h-5.6v-2c-.4 1.3-1.5 2-3.2 2h-1c-3.1 0-4.7-1.5-4.7-4.4v-11c0-3 1.6-4.4 4.7-4.4h1c1.8 0 2.9.7 3.2 2.2v-2.2zm-2.2 15.6h.9c.8 0 1.2-.4 1.2-1.3v-8.8c0-.9-.4-1.3-1.2-1.3h-.9c-.7 0-1.1.3-1.1 1v9.4c0 .7.4 1 1.1 1zm24.9-8.5h-5.4v-1.9c0-.7-.4-1-1.1-1h-1c-.7 0-1.1.3-1.1 1v9.4c0 .7.4 1 1.1 1h1c.7 0 1.1-.3 1.1-1V94h5.4v2.7c0 3-1.7 4.4-5.1 4.4H223c-3.4 0-5.1-1.5-5.1-4.4v-11c0-3 1.7-4.4 5.1-4.4h4.1c3.4 0 5.1 1.5 5.1 4.4v2.7zm2.6-9.7v-4.3h5.8v4.3h-5.8zm5.6 22.4h-5.6V81.3h5.6v19.8zm8.1-19.8h4.8c1.8 0 3 .4 3.8 1.1.8.8 1.1 1.9 1.1 3.3v10.9c0 1.4-.4 2.5-1.1 3.3-.8.8-2 1.1-3.8 1.1h-4.8c-1.8 0-3-.4-3.8-1.1-.8-.8-1.1-1.9-1.1-3.3V85.7c0-1.4.4-2.5 1.1-3.3.8-.7 2.1-1.1 3.8-1.1zm9.7-7l-4.9 5.7h-4.5l3.6-5.7h5.8zm-5.5 21.8v-9.8c0-.7-.4-1-1.1-1h-1.5c-.7 0-1.1.3-1.1 1v9.8c0 .7.4 1 1.1 1h1.5c.8 0 1.1-.3 1.1-1zM270 81.3h1c3.1 0 4.7 1.5 4.7 4.4v15.4h-5.6V86.5c0-.7-.4-1-1.1-1h-1c-.8 0-1.2.4-1.2 1.3v14.3h-5.6V81.3h5.5v2.2c.5-1.4 1.6-2.2 3.3-2.2z"/></svg>